<svg width="146" height="37" viewBox="0 0 146 37" fill="none" xmlns="http://www.w3.org/2000/svg">
<path d="M62.024 1.632C65 1.632 67.128 2.112 68.408 3.072C69.688 4.032 70.328 5.2 70.328 6.576C70.328 7.92 69.864 9.184 68.936 10.368C68.04 11.52 66.776 12.096 65.144 12.096C63.512 12.096 62.696 11.408 62.696 10.032C62.696 9.904 62.728 9.648 62.792 9.264C63.656 9.264 64.408 8.928 65.048 8.256C65.688 7.584 66.008 6.848 66.008 6.048C66.008 5.248 65.624 4.592 64.856 4.08C64.088 3.568 63.16 3.312 62.072 3.312C60.216 3.312 58.68 3.872 57.464 4.992C56.248 6.112 55.64 7.424 55.64 8.928C55.64 9.728 55.928 10.608 56.504 11.568C57.08 12.528 57.624 13.296 58.136 13.872C58.68 14.416 59.544 15.248 60.728 16.368C61.944 17.456 62.664 18.112 62.888 18.336C65.32 20.768 66.536 23.424 66.536 26.304C66.536 29.152 65.24 31.648 62.648 33.792C60.056 35.904 56.952 36.96 53.336 36.96C50.392 36.96 48.008 36.48 46.184 35.52C44.392 34.56 43.496 33.056 43.496 31.008C43.496 29.888 43.864 28.864 44.6 27.936C45.336 27.008 46.376 26.544 47.72 26.544C49.096 26.544 50.024 27.024 50.504 27.984C49.384 28.88 48.824 29.968 48.824 31.248C48.824 32.496 49.24 33.472 50.072 34.176C50.936 34.848 52.056 35.184 53.432 35.184C55.352 35.184 57.032 34.496 58.472 33.12C59.944 31.744 60.68 30.016 60.68 27.936C60.68 25.824 59.304 23.312 56.552 20.4C56.52 20.336 55.96 19.744 54.872 18.624C53.784 17.472 52.872 16.304 52.136 15.12C51.432 13.936 51.08 12.528 51.08 10.896C51.08 8.112 52.168 5.872 54.344 4.176C56.52 2.48 59.08 1.632 62.024 1.632Z" fill="black"/>
<path d="M82.733 8.496C81.165 9.584 79.405 12.368 77.453 16.848H82.301L82.349 16.896C82.349 17.056 82.173 17.344 81.821 17.76C81.469 18.144 81.165 18.336 80.909 18.336H76.781C74.253 24.608 72.989 28.64 72.989 30.432C72.989 31.648 73.373 32.256 74.141 32.256C75.261 32.256 76.573 31.296 78.077 29.376C78.429 28.96 78.893 28.256 79.469 27.264C80.941 24.896 81.709 23.712 81.773 23.712C81.965 23.712 82.061 23.968 82.061 24.48C82.029 25.696 80.701 28.064 78.077 31.584C77.213 32.736 76.173 33.808 74.957 34.8C73.741 35.792 72.637 36.288 71.645 36.288C69.821 36.288 68.909 35.008 68.909 32.448C68.909 30.304 69.421 27.84 70.445 25.056V25.008C69.837 26.128 69.309 26.96 68.861 27.504C68.445 28.048 68.205 28.32 68.141 28.32C68.013 28.32 67.949 28.128 67.949 27.744C67.949 27.328 68.157 26.672 68.573 25.776C69.021 24.88 69.613 23.712 70.349 22.272C71.117 20.832 71.741 19.52 72.221 18.336H69.005C68.909 18.336 68.861 18.272 68.861 18.144C68.861 17.984 68.973 17.728 69.197 17.376C69.453 17.024 69.645 16.848 69.773 16.848H73.421C75.725 11.312 78.061 8.544 80.429 8.544C81.805 8.544 82.573 8.528 82.733 8.496Z" fill="black"/>
<path d="M93.5341 10.464H93.3421C92.7021 10.464 92.0781 10.736 91.4701 11.28C90.8941 11.824 90.4781 12.384 90.2221 12.96C89.3901 12.64 88.9741 12.064 88.9741 11.232C88.9741 10.4 89.3581 9.568 90.1261 8.736C90.8941 7.872 91.6301 7.44 92.3341 7.44C93.0381 7.44 93.5661 7.6 93.9181 7.92C94.2701 8.24 94.4461 8.656 94.4461 9.168C94.4461 9.648 94.1421 10.08 93.5341 10.464ZM87.0061 16.8L89.4061 16.848H89.8861C89.3741 17.232 88.6861 18.272 87.8221 19.968C86.9901 21.664 86.3661 22.944 85.9501 23.808C85.5341 24.672 85.0541 25.84 84.5101 27.312C83.9981 28.784 83.7421 29.984 83.7421 30.912C83.7421 31.84 84.0461 32.304 84.6541 32.304C85.0701 32.304 85.6461 32.032 86.3821 31.488C87.1501 30.912 87.7741 30.32 88.2541 29.712C88.7341 29.072 89.2621 28.272 89.8381 27.312C90.4461 26.352 90.9581 25.52 91.3741 24.816C91.8221 24.112 92.0781 23.76 92.1421 23.76C92.3341 23.76 92.4301 24.064 92.4301 24.672C92.4301 25.248 92.2701 25.808 91.9501 26.352C90.7661 28.336 89.6781 30 88.6861 31.344C87.7261 32.656 86.6221 33.808 85.3741 34.8C84.1261 35.792 82.9901 36.288 81.9661 36.288C80.1741 36.288 79.2781 35.04 79.2781 32.544C79.2781 28.672 80.6061 24.384 83.2621 19.68C84.3821 17.76 85.6301 16.8 87.0061 16.8Z" fill="black"/>
<path d="M109.316 23.712C109.508 23.712 109.604 24.016 109.604 24.624C109.604 25.232 109.332 25.984 108.788 26.88C108.276 27.776 107.86 28.464 107.54 28.944C107.252 29.392 106.74 30.128 106.004 31.152C105.268 32.176 104.628 32.912 104.084 33.36C103.54 33.808 102.852 34.336 102.02 34.944C100.612 35.968 98.7723 36.48 96.5003 36.48C94.2603 36.48 92.6283 35.92 91.6043 34.8C90.6123 33.648 90.1163 32.16 90.1163 30.336C90.1163 26.976 91.3003 23.904 93.6683 21.12C96.0683 18.304 98.8843 16.896 102.116 16.896C103.556 16.896 104.708 17.28 105.572 18.048C106.436 18.784 106.868 19.68 106.868 20.736C106.868 21.76 106.58 22.656 106.004 23.424C105.428 24.192 104.772 24.576 104.036 24.576C102.596 24.576 101.876 23.984 101.876 22.8C101.876 22.416 102.276 22.048 103.076 21.696C103.396 21.568 103.684 21.328 103.94 20.976C104.196 20.624 104.324 20.16 104.324 19.584C104.324 18.752 103.876 18.336 102.98 18.336C101.06 18.336 99.1563 19.728 97.2683 22.512C95.3803 25.296 94.4363 28 94.4363 30.624C94.4363 33.216 95.5723 34.512 97.8443 34.512C101.012 34.512 104.1 32.064 107.108 27.168C107.716 26.208 108.212 25.392 108.596 24.72C109.012 24.048 109.252 23.712 109.316 23.712Z" fill="black"/>
<path d="M128.823 26.448C127.703 28.336 126.567 30.048 125.415 31.584C122.951 34.784 120.519 36.384 118.119 36.384C116.807 36.384 115.815 35.728 115.143 34.416C114.503 33.104 114.183 31.648 114.183 30.048C114.183 26.848 114.663 25.248 115.623 25.248C117.127 25.248 118.519 24.912 119.799 24.24C121.079 23.536 121.719 22.624 121.719 21.504C121.719 20.608 121.207 20.16 120.183 20.16C117.975 20.16 115.527 22.56 112.839 27.36C112.583 27.84 112.039 28.96 111.207 30.72C110.407 32.448 109.687 33.76 109.047 34.656C108.439 35.552 107.831 36 107.223 36H104.295C105.287 34.144 106.743 30.4 108.663 24.768C110.615 19.104 112.055 15.312 112.983 13.392C113.015 13.328 113.207 12.912 113.559 12.144C113.943 11.376 114.199 10.848 114.327 10.56C114.487 10.272 114.775 9.728 115.191 8.928C115.607 8.128 115.943 7.536 116.199 7.152C116.455 6.768 116.807 6.224 117.255 5.52C117.703 4.784 118.103 4.224 118.455 3.84C118.807 3.456 119.223 3.008 119.703 2.496C120.183 1.952 120.631 1.552 121.047 1.296C122.135 0.655998 123.127 0.335999 124.023 0.335999C125.783 0.335999 126.663 1.136 126.663 2.736C126.663 4.976 125.303 7.952 122.583 11.664C119.895 15.344 116.855 18.832 113.463 22.128L112.599 24.528C114.135 22.544 115.879 20.816 117.831 19.344C119.783 17.84 121.575 17.088 123.207 17.088C124.135 17.088 124.855 17.312 125.367 17.76C125.911 18.208 126.183 18.816 126.183 19.584C126.183 21.344 125.399 22.768 123.831 23.856C122.295 24.912 120.519 25.6 118.503 25.92C118.791 29.248 119.255 31.28 119.895 32.016C120.215 32.368 120.615 32.544 121.095 32.544C121.575 32.544 122.231 32.256 123.063 31.68C123.895 31.104 124.567 30.48 125.079 29.808C125.623 29.104 126.183 28.272 126.759 27.312C127.367 26.352 127.879 25.52 128.295 24.816C128.743 24.112 128.999 23.76 129.063 23.76C129.255 23.76 129.351 24.08 129.351 24.72C129.351 25.328 129.175 25.904 128.823 26.448ZM124.119 1.584C122.327 1.584 119.191 7.344 114.711 18.864C118.807 14.064 121.687 10.016 123.351 6.72C124.311 4.992 124.791 3.568 124.791 2.448C124.791 1.872 124.567 1.584 124.119 1.584Z" fill="black"/>
<path d="M140.014 16.704L142.462 16.752H142.942C142.462 17.104 141.774 18.144 140.878 19.872C140.014 21.6 139.358 22.912 138.91 23.808C138.494 24.672 138.014 25.856 137.47 27.36C136.958 28.832 136.702 30.032 136.702 30.96C136.702 31.888 137.022 32.352 137.662 32.352C138.078 32.32 138.654 32.032 139.39 31.488C140.158 30.912 140.782 30.32 141.262 29.712C141.774 29.072 142.318 28.272 142.894 27.312C143.502 26.32 144.014 25.472 144.43 24.768C144.878 24.032 145.134 23.664 145.198 23.664C145.422 23.664 145.534 23.968 145.534 24.576C145.534 25.152 145.374 25.712 145.054 26.256C143.678 28.528 142.542 30.272 141.646 31.488C140.75 32.704 139.662 33.824 138.382 34.848C137.134 35.84 135.998 36.336 134.974 36.336C133.15 36.336 132.238 34.992 132.238 32.304C132.238 30.48 132.59 28.416 133.294 26.112C133.998 23.808 135.038 21.584 136.414 19.44C135.294 20.336 134.174 20.784 133.054 20.784C132.702 20.784 132.334 20.704 131.95 20.544C129.678 25.024 128.446 27.264 128.254 27.264C128.094 27.264 128.014 27.008 128.014 26.496C128.014 25.952 128.206 25.216 128.59 24.288C129.006 23.328 129.438 22.416 129.886 21.552C130.366 20.688 130.622 20.208 130.654 20.112C129.502 19.536 128.926 18.608 128.926 17.328C128.926 16.688 129.118 16.112 129.502 15.6C129.918 15.088 130.478 14.832 131.182 14.832C131.886 14.832 132.462 15.056 132.91 15.504C132.846 15.696 132.814 15.984 132.814 16.368C132.814 17.232 133.118 17.92 133.726 18.432C134.366 18.912 135.134 19.152 136.03 19.152C136.286 19.152 136.478 19.136 136.606 19.104C137.726 17.504 138.862 16.704 140.014 16.704Z" fill="black"/>
<rect x="10" y="12" width="25" height="25" fill="#49BFFF"/>
<rect x="5" y="7" width="25" height="25" fill="#B2AE17"/>
<rect y="2" width="25" height="25" fill="#FFFA4E"/>
</svg>
